<svg xmlns="http://www.w3.org/2000/svg" viewBox="0 0 48 48" id="update-webpage"><g data-name="Layer 2"><rect width="32" height="32" x="8" y="8" fill="#ebf3fe"/><path fill="#48bdff" d="M40,8v2H25a1,1,0,0,0-.71.29L20.59,14H8V8Z"/><path fill="#33375c" d="M41,42H7a1,1,0,0,1-1-1V7A1,1,0,0,1,7,6H41a1,1,0,0,1,1,1V41A1,1,0,0,1,41,42ZM8,40H40V8H8Z"/><circle cx="11" cy="11" r="1" fill="#ebf3fe"/><circle cx="15" cy="11" r="1" fill="#ebf3fe"/><circle cx="19" cy="11" r="1" fill="#ebf3fe"/><path fill="#33375c" d="M21,16H7a1,1,0,0,1,0-2H20.59l3.7-3.71A1,1,0,0,1,25,10H41a1,1,0,0,1,0,2H25.41l-3.7,3.71A1,1,0,0,1,21,16Z"/><path fill="#2d98f6" d="M16 29a1 1 0 0 1-1-1 9 9 0 0 1 9-9 1 1 0 0 1 0 2 7 7 0 0 0-7 7A1 1 0 0 1 16 29zM24 37a1 1 0 0 1 0-2 7 7 0 0 0 7-7 1 1 0 0 1 2 0A9 9 0 0 1 24 37z"/><path fill="#2d98f6" d="M29.66 23.34a1 1 0 0 1-.71-.29 7 7 0 0 0-9.9 0 1 1 0 0 1-1.41-1.41 9 9 0 0 1 12.72 0 1 1 0 0 1 0 1.41A1 1 0 0 1 29.66 23.34zM24 37a8.93 8.93 0 0 1-6.36-2.64A1 1 0 1 1 19.05 33 7 7 0 0 0 29 33a1 1 0 1 1 1.41 1.41A9 9 0 0 1 24 37zM34 29a1 1 0 0 1-.7-.29L32 27.41l-1.29 1.3a1 1 0 0 1-1.41 0 1 1 0 0 1 0-1.42l2-2a1 1 0 0 1 1.41 0l2 2a1 1 0 0 1 0 1.42A1 1 0 0 1 34 29zM16 31a1 1 0 0 1-.7-.29l-2-2a1 1 0 1 1 1.41-1.42L16 28.59l1.3-1.3a1 1 0 0 1 1.41 0 1 1 0 0 1 0 1.42l-2 2A1 1 0 0 1 16 31z"/></g></svg>